<?xml version="1.0" encoding="utf-8"?>
<!-- Generator: Adobe Illustrator 22.1.0, SVG Export Plug-In . SVG Version: 6.00 Build 0)  -->
<svg version="1.1" id="Capa_1" xmlns="http://www.w3.org/2000/svg" xmlns:xlink="http://www.w3.org/1999/xlink" x="0px" y="0px" viewBox="0 0 300 300" style="enable-background:new 0 0 300 300" xml:space="preserve">
	<style type="text/css">
		.st0{fill:#58D2D4;}
		.st1{fill:#B7DC78;}
		.st2{fill:none;}
		.st3{fill:#00A5B5;}
		.st4{fill:#FDA6B6;}
		.st5{fill:#FDBD1D;}
		.st6{fill:#FFFFFF;}
		
		g:not(.others) { display: none; }
		g:target { display: initial; }
	</style>
	<g id="right">
		<ellipse transform="matrix(0.8383 -0.5453 0.5453 0.8383 -17.8427 24.6578)" class="st1" cx="32.6" cy="42.4" rx="12.5" ry="8.3"/>
		<path class="st1" d="M23.3,162.6l12.2,9.1L24.3,179c4.8,10.1,6,13.7,8.6,18.7l19.8-12.9L23.3,162.6z"/>
		<path class="st2" d="M33.7,172.6l-8.6,5.6c2.9,6,6.1,11.4,9.2,16.2l12.7-8.3L33.7,172.6z"/>
		<path class="st0" d="M185.3,110.3c0.4,0.1,0.8,0.1,1.1,0.1C186,110.4,185.6,110.3,185.3,110.3z"/>
		<path class="st0" d="M189.9,110.8c-0.5-0.1-1.1-0.1-1.6-0.2C188.8,110.7,189.3,110.8,189.9,110.8z"/>
		<path class="st3" d="M178.9,111.7c-0.4,0.6,15.2,1,14.7,1.6c16.9,1.2,41.9-2.1,62.5-15.5c0,0,0,0,0,0C275.1,85.5,287.2,65,293.6,32
			l-69.3,11.6c-3.2,9.9-10.3,18.5-23.3,37.5"/>
		<path class="st0" d="M193.4,111.2c-0.6,0-1.2-0.1-1.8-0.1C192.2,111.1,192.8,111.1,193.4,111.2z"/>
		<path class="st3" d="M58.1,190.8l-18,11.7c0,0,0,0,0,0l-2.6,1.3c1.7,2.5,9.4,10.6,10.5,12c52.4-35.5,94-76.2,117.3-103
			c-29.5-38.8-60.6-56.3-82.3-61.9c-27.6-2-42.6-2.7-42.6-2.7C10.1,79,0.5,134.9,18.8,170.5l2.8-1.8c2.2-1.4,13.2-6.1,15-4.2
			l22.7,18.4c1.2,1.2,1.6,2.5,1.4,4.2C60.5,188.7,59.4,189.9,58.1,190.8z"/>
		<path class="st4" d="M60.2,39.1c-0.6,0-1.2,0-1.8-0.1C59,39.1,59.6,39.1,60.2,39.1z"/>
		<path class="st3" d="M202,34.2c-1.7,2.6-5,5.4-9.5,8.3c-0.1,0-0.1,0.1-0.2,0.1c-7.3,4.7-20,9.4-41.1,2c-21-7.4-32-25.5-35.6-33.6
			C96,13.7,65.3,29.2,52,37.8c-0.7,0.5-1.4,1-2,1.5c-0.4,0-0.8,0-1.2-0.1c5.4,0.5,28,1.6,34.5,3.2c23.3,5.7,57.4,21.1,89.2,62
			c1.1-1.4,2.2-2.7,3.3-4.1c7.5-9.9,13.5-18.3,18.4-25.4c10.5-16.1,15.7-28.2,18-33.9C208.9,38.8,205.3,36.3,202,34.2z"/>
		<path class="st4" d="M57.2,39c-1,0-2,0-2.9,0C55.2,39,56.2,39,57.2,39z"/>
		<path class="st4" d="M116.3,14.1C116.3,14.1,116.3,14.1,116.3,14.1C116.3,14.1,116.3,14.1,116.3,14.1z"/>
		<path class="st4" d="M63.5,39.3c-0.5,0-1-0.1-1.5-0.1C62.5,39.3,62.9,39.3,63.5,39.3z"/>
		<path class="st5" d="M166.4,18.1c0.4,0.1,0.7,0.3,1.1,0.4C167.2,18.3,166.8,18.2,166.4,18.1z"/>
		<path class="st5" d="M170.5,19.4c0.5,0.2,1.1,0.4,1.6,0.6C171.6,19.8,171,19.6,170.5,19.4z"/>
		<path class="st5" d="M161.2,16.5c0.4,0.1,0.8,0.2,1.2,0.3C162,16.7,161.6,16.6,161.2,16.5z"/>
		<path class="st5" d="M156.9,15.4c0.5,0.1,1,0.2,1.5,0.4C157.9,15.6,157.4,15.5,156.9,15.4z"/>
		<path class="st5" d="M174.6,21c0.6,0.2,1.2,0.5,1.8,0.7C175.8,21.5,175.2,21.2,174.6,21z"/>
		<path class="st5" d="M183,24.5c0.6,0.3,1.3,0.6,1.9,0.9C184.3,25.1,183.7,24.8,183,24.5z"/>
		<path class="st5" d="M178.8,22.7c0.6,0.3,1.3,0.5,1.9,0.8C180,23.2,179.4,22.9,178.8,22.7z"/>
		<path class="st5" d="M154.5,14.8c-0.5-0.1-1.1-0.2-1.6-0.3C153.4,14.6,154,14.7,154.5,14.8z"/>
		<path class="st5" d="M134.1,12c0.5,0,0.9,0.1,1.4,0.1C135,12.1,134.5,12.1,134.1,12z"/>
		<path class="st5" d="M130.5,11.9c0.4,0,0.8,0,1.1,0C131.2,11.9,130.9,11.9,130.5,11.9z"/>
		<path class="st1" d="M185.4,21.8c-16.6-6.2-46-10.9-60.1-10.7c1.1,4.1,10.7,19.5,22.7,26.1c-0.4-0.1,7.8-2,7.4-2.2
			c24.2,8.5,34.2-0.8,37.6-5.6C190.6,28.2,187.7,22.9,185.4,21.8z"/>
		<path class="st5" d="M149,13.7c0.5,0.1,1.1,0.2,1.6,0.3C150.1,13.9,149.6,13.8,149,13.7z"/>
		<path class="st5" d="M145.2,13.1c0.5,0.1,1.1,0.2,1.6,0.2C146.3,13.3,145.7,13.2,145.2,13.1z"/>
		<path class="st5" d="M137.7,12.3c0.5,0,1,0.1,1.5,0.1C138.7,12.4,138.2,12.3,137.7,12.3z"/>
		<path class="st5" d="M141.4,12.6c0.5,0.1,1,0.1,1.6,0.2C142.5,12.7,141.9,12.7,141.4,12.6z"/>
		<path class="st2" d="M130.2,34.1c0.2,0.1,0.4,0.3,0.6,0.4C130.6,34.4,130.4,34.2,130.2,34.1z"/>
		<path class="st2" d="M128.8,32.9c0.2,0.1,0.3,0.3,0.5,0.4C129.1,33.2,128.9,33.1,128.8,32.9z"/>
		<path class="st2" d="M126.2,30.6c0,0,0.1,0.1,0.1,0.1C126.3,30.7,126.2,30.7,126.2,30.6z"/>
		<path class="st2" d="M131.7,35.2c0.2,0.2,0.4,0.3,0.6,0.5C132.1,35.5,131.9,35.4,131.7,35.2z"/>
		<path class="st2" d="M133.3,36.4c0.2,0.2,0.5,0.3,0.7,0.5C133.8,36.7,133.6,36.5,133.3,36.4z"/>
		<path class="st2" d="M36,40.8l1.9-2.4c-2.7-1.2-5.8-1-8.4,0.7c-0.8,0.5-1.5,1.1-2.1,1.9c-1.5,1.8-2.2,4.1-1.9,6.5
			c0.2,1.6,0.7,3,1.6,4.2c2.3-3.1,4.8-6.2,7.4-9.3C34.7,42.2,35.1,41.7,36,40.8z"/>
		<path class="st2" d="M41.9,50.9l-6.6,8.2c-24.1,33.1-29.5,68.6-16,105.7c0.4,1.1,0.8,2.2,1.2,3.3l10.9-7.1c2.2-1.4,5.1-1.1,6.9,0.7
			l21.2,21.5c1.2,1.2,1.7,2.8,1.5,4.4c-0.2,1.6-1.1,3.1-2.5,4l-18,11.7c3.2,4.3,6,7.6,8,9.8c55.5-36.9,92.7-72.3,116.9-100.1
			c-30.1-39.6-62.2-54.4-84-59.8C62,48.5,47.1,50,41.9,50.9z"/>
		<path class="st2" d="M192.9,29.5c-24.3-13.1-46.4-17.8-66-17.6c1.4,5.3,6.9,15.6,28.4,23.1C179.5,43.5,189.5,34.3,192.9,29.5z"/>
		<path class="st2" d="M135.1,37.5c0.3,0.2,0.5,0.3,0.8,0.5C135.6,37.8,135.3,37.7,135.1,37.5z"/>
		<path class="st2" d="M127.4,31.8c0.1,0.1,0.2,0.2,0.3,0.3C127.6,32,127.5,31.9,127.4,31.8z"/>
		<path class="st2" d="M212.6,41.6c-1.4-1-2.8-1.9-4.2-2.8c-2.4,3.8-6.6,9-10.8,11.7c-0.1,0-0.1,0.1-0.2,0.1
			c-7.3,4.7-20.5,8.7-41.5,1.3c-20.2-7.1-29.1-17-33.1-24.9c0,0,0,0,0,0c-4.5-5.5-6.3-10.8-6.9-14.4C95.4,15,78.1,22.8,64.4,31.7
			c-3.9,2.5-7.3,5-10.1,7.3c7.7,0,17.7,0.7,29.1,3.5c23.3,5.7,57.4,21,89.2,62c1.1-1.4,2.2-2.7,3.3-4.1c7.5-9.9,13.5-18.3,18.4-25.4
			C204.8,59,210.3,47.2,212.6,41.6z"/>
		<path class="st2" d="M145.6,43c0.3,0.1,0.6,0.3,0.9,0.4C146.2,43.3,145.9,43.1,145.6,43z"/>
		<path class="st2" d="M148.2,44.1c0.3,0.1,0.5,0.2,0.8,0.3C148.8,44.3,148.5,44.2,148.2,44.1z"/>
		<path class="st2" d="M204.1,80.2c-3.5,5.4-7.6,11.3-12.3,17.6c-2.2,3-4.6,6.1-7.2,9.4c-0.7,0.9-1.4,1.8-2.1,2.7
			c15,2.4,47.6,4.8,73.6-12.1c0,0,0,0,0,0c20-13,32.4-35,37-65.4l-68.9,13.5C222.2,50.9,217.1,61.1,204.1,80.2z"/>
		<path class="st2" d="M143.2,41.9c0.3,0.1,0.6,0.3,1,0.4C143.9,42.2,143.5,42.1,143.2,41.9z"/>
		<path class="st2" d="M141,40.8c0.3,0.2,0.6,0.3,0.9,0.5C141.6,41.2,141.3,41,141,40.8z"/>
		<path class="st2" d="M136.9,38.6c0.3,0.2,0.5,0.3,0.8,0.5C137.5,39,137.2,38.8,136.9,38.6z"/>
		<path class="st2" d="M138.9,39.8c0.3,0.2,0.6,0.3,0.9,0.5C139.5,40.1,139.2,39.9,138.9,39.8z"/>
		<path class="st6" d="M303.2,21.5c-1.3-1.2-3-1.7-4.8-1.3l-76.1,14.9c0,0,0,0,0,0C146.7-19.4,87.2,3.8,58.4,22.5
			c-4.6,3-8.5,5.9-11.8,8.6c-6.7-5.3-15.9-5.8-23.1-1.1c-1.7,1.1-3.3,2.5-4.6,4.2c-3.3,4.1-4.8,9.3-4.3,14.5
			c0.5,4.8,2.7,9.1,6.2,12.3c-26.5,42-21.6,81.1-11.7,108c12.2,33,33.8,54.3,34.7,55.2c1.8,1.8,4.7,2.1,6.8,0.7c0,0,0,0,0,0
			c59-38.7,98.3-76.1,123.6-105.3c11.5,2.5,53.7,9.6,87.8-12.6c0,0,0,0,0,0C286.5,91.1,301,63.9,305,26.1
			C305.2,24.4,304.5,22.7,303.2,21.5z M127,11.9c19.5-0.3,41.6,4.5,66,17.6c-3.4,4.8-13.4,14.1-37.6,5.6
			C133.8,27.5,128.3,17.2,127,11.9z M27.2,51.7c-0.9-1.2-1.5-2.7-1.6-4.2c-0.3-2.3,0.4-4.6,1.9-6.5c0.6-0.7,1.3-1.4,2.1-1.9
			c2.5-1.7,5.7-1.9,8.4-0.7L36,40.8 M25,178.2l8.6-5.6L47,186.1l-12.7,8.3C31.2,189.6,28,184.2,25,178.2z M48.5,213.1
			c-2-2.2-4.8-5.5-8-9.8l18-11.7c1.4-0.9,2.3-2.4,2.5-4c0.2-1.6-0.4-3.3-1.5-4.4l-21.2-21.5c-1.8-1.9-4.7-2.2-6.9-0.7l-10.9,7.1
			c-0.4-1.1-0.8-2.2-1.2-3.3c-13.5-37.1-8.1-72.6,16-105.7l6.6-8.2c5.1-0.8,20.1-2.4,39.5,2.4c21.8,5.4,53.9,20.2,84,59.8
			C141.3,140.9,104.1,176.3,48.5,213.1z M172.6,104.5c-31.8-41-65.9-56.4-89.2-62C71.9,39.7,62,39,54.3,39c2.9-2.3,6.3-4.8,10.1-7.3
			c13.7-8.9,31-16.7,51.6-19.1c0.7,3.7,2.4,8.9,6.9,14.4c1,1.2,2.1,2.4,3.3,3.6c0,0,0.1,0.1,0.1,0.1c0.4,0.3,0.7,0.7,1.1,1
			c0.1,0.1,0.2,0.2,0.3,0.3c0.3,0.3,0.7,0.6,1,0.9c0.2,0.1,0.3,0.3,0.5,0.4c0.3,0.3,0.6,0.5,1,0.8c0.2,0.1,0.4,0.3,0.6,0.4
			c0.3,0.2,0.6,0.5,1,0.7c0.2,0.2,0.4,0.3,0.6,0.5c0.3,0.2,0.7,0.5,1,0.7c0.2,0.2,0.5,0.3,0.7,0.5c0.3,0.2,0.7,0.4,1,0.7
			c0.3,0.2,0.5,0.3,0.8,0.5c0.4,0.2,0.7,0.4,1.1,0.6c0.3,0.2,0.5,0.3,0.8,0.5c0.4,0.2,0.8,0.4,1.1,0.6c0.3,0.2,0.6,0.3,0.9,0.5
			c0.4,0.2,0.8,0.4,1.2,0.6c0.3,0.2,0.6,0.3,0.9,0.5c0.4,0.2,0.9,0.4,1.3,0.6c0.3,0.1,0.6,0.3,1,0.4c0.5,0.2,1,0.4,1.4,0.6
			c0.3,0.1,0.6,0.3,0.9,0.4c0.5,0.2,1.1,0.4,1.7,0.7c0.3,0.1,0.5,0.2,0.8,0.3c0.9,0.3,1.7,0.7,2.6,1c21.1,7.4,34.2,3.4,41.5-1.3
			c0.1,0,0.1-0.1,0.2-0.1c4.5-2.9,7.3-6.4,9.1-9c2,1.2,4,2.5,6,3.8c1.4,0.9,2.8,1.8,4.2,2.8c-2.3,5.6-7.8,17.4-18.3,33.5
			c-4.9,7.1-10.9,15.5-18.4,25.4C174.9,101.8,173.8,103.1,172.6,104.5z M256.1,97.8C256.1,97.8,256.1,97.8,256.1,97.8
			c-26,16.9-58.6,14.5-73.6,12.1c0.7-0.9,1.4-1.8,2.1-2.7c2.6-3.3,5-6.4,7.2-9.4c4.7-6.3,8.8-12.2,12.3-17.6
			c13-19,18.1-29.3,20.1-34.3l68.9-13.5C288.5,62.8,276.1,84.8,256.1,97.8z"/>
	</g>
	
	<g id="left" style="transform: scale(-1, 1) translate(-100%, 0%)">
		<ellipse transform="matrix(0.8383 -0.5453 0.5453 0.8383 -17.8427 24.6578)" class="st1" cx="32.6" cy="42.4" rx="12.5" ry="8.3"/>
		<path class="st1" d="M23.3,162.6l12.2,9.1L24.3,179c4.8,10.1,6,13.7,8.6,18.7l19.8-12.9L23.3,162.6z"/>
		<path class="st2" d="M33.7,172.6l-8.6,5.6c2.9,6,6.1,11.4,9.2,16.2l12.7-8.3L33.7,172.6z"/>
		<path class="st0" d="M185.3,110.3c0.4,0.1,0.8,0.1,1.1,0.1C186,110.4,185.6,110.3,185.3,110.3z"/>
		<path class="st0" d="M189.9,110.8c-0.5-0.1-1.1-0.1-1.6-0.2C188.8,110.7,189.3,110.8,189.9,110.8z"/>
		<path class="st3" d="M178.9,111.7c-0.4,0.6,15.2,1,14.7,1.6c16.9,1.2,41.9-2.1,62.5-15.5c0,0,0,0,0,0C275.1,85.5,287.2,65,293.6,32
			l-69.3,11.6c-3.2,9.9-10.3,18.5-23.3,37.5"/>
		<path class="st0" d="M193.4,111.2c-0.6,0-1.2-0.1-1.8-0.1C192.2,111.1,192.8,111.1,193.4,111.2z"/>
		<path class="st3" d="M58.1,190.8l-18,11.7c0,0,0,0,0,0l-2.6,1.3c1.7,2.5,9.4,10.6,10.5,12c52.4-35.5,94-76.2,117.3-103
			c-29.5-38.8-60.6-56.3-82.3-61.9c-27.6-2-42.6-2.7-42.6-2.7C10.1,79,0.5,134.9,18.8,170.5l2.8-1.8c2.2-1.4,13.2-6.1,15-4.2
			l22.7,18.4c1.2,1.2,1.6,2.5,1.4,4.2C60.5,188.7,59.4,189.9,58.1,190.8z"/>
		<path class="st4" d="M60.2,39.1c-0.6,0-1.2,0-1.8-0.1C59,39.1,59.6,39.1,60.2,39.1z"/>
		<path class="st3" d="M202,34.2c-1.7,2.6-5,5.4-9.5,8.3c-0.1,0-0.1,0.1-0.2,0.1c-7.3,4.7-20,9.4-41.1,2c-21-7.4-32-25.5-35.6-33.6
			C96,13.7,65.3,29.2,52,37.8c-0.7,0.5-1.4,1-2,1.5c-0.4,0-0.8,0-1.2-0.1c5.4,0.5,28,1.6,34.5,3.2c23.3,5.7,57.4,21.1,89.2,62
			c1.1-1.4,2.2-2.7,3.3-4.1c7.5-9.9,13.5-18.3,18.4-25.4c10.5-16.1,15.7-28.2,18-33.9C208.9,38.8,205.3,36.3,202,34.2z"/>
		<path class="st4" d="M57.2,39c-1,0-2,0-2.9,0C55.2,39,56.2,39,57.2,39z"/>
		<path class="st4" d="M116.3,14.1C116.3,14.1,116.3,14.1,116.3,14.1C116.3,14.1,116.3,14.1,116.3,14.1z"/>
		<path class="st4" d="M63.5,39.3c-0.5,0-1-0.1-1.5-0.1C62.5,39.3,62.9,39.3,63.5,39.3z"/>
		<path class="st5" d="M166.4,18.1c0.4,0.1,0.7,0.3,1.1,0.4C167.2,18.3,166.8,18.2,166.4,18.1z"/>
		<path class="st5" d="M170.5,19.4c0.5,0.2,1.1,0.4,1.6,0.6C171.6,19.8,171,19.6,170.5,19.4z"/>
		<path class="st5" d="M161.2,16.5c0.4,0.1,0.8,0.2,1.2,0.3C162,16.7,161.6,16.6,161.2,16.5z"/>
		<path class="st5" d="M156.9,15.4c0.5,0.1,1,0.2,1.5,0.4C157.9,15.6,157.4,15.5,156.9,15.4z"/>
		<path class="st5" d="M174.6,21c0.6,0.2,1.2,0.5,1.8,0.7C175.8,21.5,175.2,21.2,174.6,21z"/>
		<path class="st5" d="M183,24.5c0.6,0.3,1.3,0.6,1.9,0.9C184.3,25.1,183.7,24.8,183,24.5z"/>
		<path class="st5" d="M178.8,22.7c0.6,0.3,1.3,0.5,1.9,0.8C180,23.2,179.4,22.9,178.8,22.7z"/>
		<path class="st5" d="M154.5,14.8c-0.5-0.1-1.1-0.2-1.6-0.3C153.4,14.6,154,14.7,154.5,14.8z"/>
		<path class="st5" d="M134.1,12c0.5,0,0.9,0.1,1.4,0.1C135,12.1,134.5,12.1,134.1,12z"/>
		<path class="st5" d="M130.5,11.9c0.4,0,0.8,0,1.1,0C131.2,11.9,130.9,11.9,130.5,11.9z"/>
		<path class="st1" d="M185.4,21.8c-16.6-6.2-46-10.9-60.1-10.7c1.1,4.1,10.7,19.5,22.7,26.1c-0.4-0.1,7.8-2,7.4-2.2
			c24.2,8.5,34.2-0.8,37.6-5.6C190.6,28.2,187.7,22.9,185.4,21.8z"/>
		<path class="st5" d="M149,13.7c0.5,0.1,1.1,0.2,1.6,0.3C150.1,13.9,149.6,13.8,149,13.7z"/>
		<path class="st5" d="M145.2,13.1c0.5,0.1,1.1,0.2,1.6,0.2C146.3,13.3,145.7,13.2,145.2,13.1z"/>
		<path class="st5" d="M137.7,12.3c0.5,0,1,0.1,1.5,0.1C138.7,12.4,138.2,12.3,137.7,12.3z"/>
		<path class="st5" d="M141.4,12.6c0.5,0.1,1,0.1,1.6,0.2C142.5,12.7,141.9,12.7,141.4,12.6z"/>
		<path class="st2" d="M130.2,34.1c0.2,0.1,0.4,0.3,0.6,0.4C130.6,34.4,130.4,34.2,130.2,34.1z"/>
		<path class="st2" d="M128.8,32.9c0.2,0.1,0.3,0.3,0.5,0.4C129.1,33.2,128.9,33.1,128.8,32.9z"/>
		<path class="st2" d="M126.2,30.6c0,0,0.1,0.1,0.1,0.1C126.3,30.7,126.2,30.7,126.2,30.6z"/>
		<path class="st2" d="M131.7,35.2c0.2,0.2,0.4,0.3,0.6,0.5C132.1,35.5,131.9,35.4,131.7,35.2z"/>
		<path class="st2" d="M133.3,36.4c0.2,0.2,0.5,0.3,0.7,0.5C133.8,36.7,133.6,36.5,133.3,36.4z"/>
		<path class="st2" d="M36,40.8l1.9-2.4c-2.7-1.2-5.8-1-8.4,0.7c-0.8,0.5-1.5,1.1-2.1,1.9c-1.5,1.8-2.2,4.1-1.9,6.5
			c0.2,1.6,0.7,3,1.6,4.2c2.3-3.1,4.8-6.2,7.4-9.3C34.7,42.2,35.1,41.7,36,40.8z"/>
		<path class="st2" d="M41.9,50.9l-6.6,8.2c-24.1,33.1-29.5,68.6-16,105.7c0.4,1.1,0.8,2.2,1.2,3.3l10.9-7.1c2.2-1.4,5.1-1.1,6.9,0.7
			l21.2,21.5c1.2,1.2,1.7,2.8,1.5,4.4c-0.2,1.6-1.1,3.1-2.5,4l-18,11.7c3.2,4.3,6,7.6,8,9.8c55.5-36.9,92.7-72.3,116.9-100.1
			c-30.1-39.6-62.2-54.4-84-59.8C62,48.5,47.1,50,41.9,50.9z"/>
		<path class="st2" d="M192.9,29.5c-24.3-13.1-46.4-17.8-66-17.6c1.4,5.3,6.9,15.6,28.4,23.1C179.5,43.5,189.5,34.3,192.9,29.5z"/>
		<path class="st2" d="M135.1,37.5c0.3,0.2,0.5,0.3,0.8,0.5C135.6,37.8,135.3,37.7,135.1,37.5z"/>
		<path class="st2" d="M127.4,31.8c0.1,0.1,0.2,0.2,0.3,0.3C127.6,32,127.5,31.9,127.4,31.8z"/>
		<path class="st2" d="M212.6,41.6c-1.4-1-2.8-1.9-4.2-2.8c-2.4,3.8-6.6,9-10.8,11.7c-0.1,0-0.1,0.1-0.2,0.1
			c-7.3,4.7-20.5,8.7-41.5,1.3c-20.2-7.1-29.1-17-33.1-24.9c0,0,0,0,0,0c-4.5-5.5-6.3-10.8-6.9-14.4C95.4,15,78.1,22.8,64.4,31.7
			c-3.9,2.5-7.3,5-10.1,7.3c7.7,0,17.7,0.7,29.1,3.5c23.3,5.7,57.4,21,89.2,62c1.1-1.4,2.2-2.7,3.3-4.1c7.5-9.9,13.5-18.3,18.4-25.4
			C204.8,59,210.3,47.2,212.6,41.6z"/>
		<path class="st2" d="M145.6,43c0.3,0.1,0.6,0.3,0.9,0.4C146.2,43.3,145.9,43.1,145.6,43z"/>
		<path class="st2" d="M148.2,44.1c0.3,0.1,0.5,0.2,0.8,0.3C148.8,44.3,148.5,44.2,148.2,44.1z"/>
		<path class="st2" d="M204.1,80.2c-3.5,5.4-7.6,11.3-12.3,17.6c-2.2,3-4.6,6.1-7.2,9.4c-0.7,0.9-1.4,1.8-2.1,2.7
			c15,2.4,47.6,4.8,73.6-12.1c0,0,0,0,0,0c20-13,32.4-35,37-65.4l-68.9,13.5C222.2,50.9,217.1,61.1,204.1,80.2z"/>
		<path class="st2" d="M143.2,41.9c0.3,0.1,0.6,0.3,1,0.4C143.9,42.2,143.5,42.1,143.2,41.9z"/>
		<path class="st2" d="M141,40.8c0.3,0.2,0.6,0.3,0.9,0.5C141.6,41.2,141.3,41,141,40.8z"/>
		<path class="st2" d="M136.9,38.6c0.3,0.2,0.5,0.3,0.8,0.5C137.5,39,137.2,38.8,136.9,38.6z"/>
		<path class="st2" d="M138.9,39.8c0.3,0.2,0.6,0.3,0.9,0.5C139.5,40.1,139.2,39.9,138.9,39.8z"/>
		<path class="st6" d="M303.2,21.5c-1.3-1.2-3-1.7-4.8-1.3l-76.1,14.9c0,0,0,0,0,0C146.7-19.4,87.2,3.8,58.4,22.5
			c-4.6,3-8.5,5.9-11.8,8.6c-6.7-5.3-15.9-5.8-23.1-1.1c-1.7,1.1-3.3,2.5-4.6,4.2c-3.3,4.1-4.8,9.3-4.3,14.5
			c0.5,4.8,2.7,9.1,6.2,12.3c-26.5,42-21.6,81.1-11.7,108c12.2,33,33.8,54.3,34.7,55.2c1.8,1.8,4.7,2.1,6.8,0.7c0,0,0,0,0,0
			c59-38.7,98.3-76.1,123.6-105.3c11.5,2.5,53.7,9.6,87.8-12.6c0,0,0,0,0,0C286.5,91.1,301,63.9,305,26.1
			C305.2,24.4,304.5,22.7,303.2,21.5z M127,11.9c19.5-0.3,41.6,4.5,66,17.6c-3.4,4.8-13.4,14.1-37.6,5.6
			C133.8,27.5,128.3,17.2,127,11.9z M27.2,51.7c-0.9-1.2-1.5-2.7-1.6-4.2c-0.3-2.3,0.4-4.6,1.9-6.5c0.6-0.7,1.3-1.4,2.1-1.9
			c2.5-1.7,5.7-1.9,8.4-0.7L36,40.8 M25,178.2l8.6-5.6L47,186.1l-12.7,8.3C31.2,189.6,28,184.2,25,178.2z M48.5,213.1
			c-2-2.2-4.8-5.5-8-9.8l18-11.7c1.4-0.9,2.3-2.4,2.5-4c0.2-1.6-0.4-3.3-1.5-4.4l-21.2-21.5c-1.8-1.9-4.7-2.2-6.9-0.7l-10.9,7.1
			c-0.4-1.1-0.8-2.2-1.2-3.3c-13.5-37.1-8.1-72.6,16-105.7l6.6-8.2c5.1-0.8,20.1-2.4,39.5,2.4c21.8,5.4,53.9,20.2,84,59.8
			C141.3,140.9,104.1,176.3,48.5,213.1z M172.6,104.5c-31.8-41-65.9-56.4-89.2-62C71.9,39.7,62,39,54.3,39c2.9-2.3,6.3-4.8,10.1-7.3
			c13.7-8.9,31-16.7,51.6-19.1c0.7,3.7,2.4,8.9,6.9,14.4c1,1.2,2.1,2.4,3.3,3.6c0,0,0.1,0.1,0.1,0.1c0.4,0.3,0.7,0.7,1.1,1
			c0.1,0.1,0.2,0.2,0.3,0.3c0.3,0.3,0.7,0.6,1,0.9c0.2,0.1,0.3,0.3,0.5,0.4c0.3,0.3,0.6,0.5,1,0.8c0.2,0.1,0.4,0.3,0.6,0.4
			c0.3,0.2,0.6,0.5,1,0.7c0.2,0.2,0.4,0.3,0.6,0.5c0.3,0.2,0.7,0.5,1,0.7c0.2,0.2,0.5,0.3,0.7,0.5c0.3,0.2,0.7,0.4,1,0.7
			c0.3,0.2,0.5,0.3,0.8,0.5c0.4,0.2,0.7,0.4,1.1,0.6c0.3,0.2,0.5,0.3,0.8,0.5c0.4,0.2,0.8,0.4,1.1,0.6c0.3,0.2,0.6,0.3,0.9,0.5
			c0.4,0.2,0.8,0.4,1.2,0.6c0.3,0.2,0.6,0.3,0.9,0.5c0.4,0.2,0.9,0.4,1.3,0.6c0.3,0.1,0.6,0.3,1,0.4c0.5,0.2,1,0.4,1.4,0.6
			c0.3,0.1,0.6,0.3,0.9,0.4c0.5,0.2,1.1,0.4,1.7,0.7c0.3,0.1,0.5,0.2,0.8,0.3c0.9,0.3,1.7,0.7,2.6,1c21.1,7.4,34.2,3.4,41.5-1.3
			c0.1,0,0.1-0.1,0.2-0.1c4.5-2.9,7.3-6.4,9.1-9c2,1.2,4,2.5,6,3.8c1.4,0.9,2.8,1.8,4.2,2.8c-2.3,5.6-7.8,17.4-18.3,33.5
			c-4.9,7.1-10.9,15.5-18.4,25.4C174.9,101.8,173.8,103.1,172.6,104.5z M256.1,97.8C256.1,97.8,256.1,97.8,256.1,97.8
			c-26,16.9-58.6,14.5-73.6,12.1c0.7-0.9,1.4-1.8,2.1-2.7c2.6-3.3,5-6.4,7.2-9.4c4.7-6.3,8.8-12.2,12.3-17.6
			c13-19,18.1-29.3,20.1-34.3l68.9-13.5C288.5,62.8,276.1,84.8,256.1,97.8z"/>
	</g>
	
	<g id="up" style="transform: rotate(-90deg); transform-origin: center">
		<ellipse transform="matrix(0.8383 -0.5453 0.5453 0.8383 -17.8427 24.6578)" class="st1" cx="32.6" cy="42.4" rx="12.5" ry="8.3"/>
		<path class="st1" d="M23.3,162.6l12.2,9.1L24.3,179c4.8,10.1,6,13.7,8.6,18.7l19.8-12.9L23.3,162.6z"/>
		<path class="st2" d="M33.7,172.6l-8.6,5.6c2.9,6,6.1,11.4,9.2,16.2l12.7-8.3L33.7,172.6z"/>
		<path class="st0" d="M185.3,110.3c0.4,0.1,0.8,0.1,1.1,0.1C186,110.4,185.6,110.3,185.3,110.3z"/>
		<path class="st0" d="M189.9,110.8c-0.5-0.1-1.1-0.1-1.6-0.2C188.8,110.7,189.3,110.8,189.9,110.8z"/>
		<path class="st3" d="M178.9,111.7c-0.4,0.6,15.2,1,14.7,1.6c16.9,1.2,41.9-2.1,62.5-15.5c0,0,0,0,0,0C275.1,85.5,287.2,65,293.6,32
			l-69.3,11.6c-3.2,9.9-10.3,18.5-23.3,37.5"/>
		<path class="st0" d="M193.4,111.2c-0.6,0-1.2-0.1-1.8-0.1C192.2,111.1,192.8,111.1,193.4,111.2z"/>
		<path class="st3" d="M58.1,190.8l-18,11.7c0,0,0,0,0,0l-2.6,1.3c1.7,2.5,9.4,10.6,10.5,12c52.4-35.5,94-76.2,117.3-103
			c-29.5-38.8-60.6-56.3-82.3-61.9c-27.6-2-42.6-2.7-42.6-2.7C10.1,79,0.5,134.9,18.8,170.5l2.8-1.8c2.2-1.4,13.2-6.1,15-4.2
			l22.7,18.4c1.2,1.2,1.6,2.5,1.4,4.2C60.5,188.7,59.4,189.9,58.1,190.8z"/>
		<path class="st4" d="M60.2,39.1c-0.6,0-1.2,0-1.8-0.1C59,39.1,59.6,39.1,60.2,39.1z"/>
		<path class="st3" d="M202,34.2c-1.7,2.6-5,5.4-9.5,8.3c-0.1,0-0.1,0.1-0.2,0.1c-7.3,4.7-20,9.4-41.1,2c-21-7.4-32-25.5-35.6-33.6
			C96,13.7,65.3,29.2,52,37.8c-0.7,0.5-1.4,1-2,1.5c-0.4,0-0.8,0-1.2-0.1c5.4,0.5,28,1.6,34.5,3.2c23.3,5.7,57.4,21.1,89.2,62
			c1.1-1.4,2.2-2.7,3.3-4.1c7.5-9.9,13.5-18.3,18.4-25.4c10.5-16.1,15.7-28.2,18-33.9C208.9,38.8,205.3,36.3,202,34.2z"/>
		<path class="st4" d="M57.2,39c-1,0-2,0-2.9,0C55.2,39,56.2,39,57.2,39z"/>
		<path class="st4" d="M116.3,14.1C116.3,14.1,116.3,14.1,116.3,14.1C116.3,14.1,116.3,14.1,116.3,14.1z"/>
		<path class="st4" d="M63.5,39.3c-0.5,0-1-0.1-1.5-0.1C62.5,39.3,62.9,39.3,63.5,39.3z"/>
		<path class="st5" d="M166.4,18.1c0.4,0.1,0.7,0.3,1.1,0.4C167.2,18.3,166.8,18.2,166.4,18.1z"/>
		<path class="st5" d="M170.5,19.4c0.5,0.2,1.1,0.4,1.6,0.6C171.6,19.8,171,19.6,170.5,19.4z"/>
		<path class="st5" d="M161.2,16.5c0.4,0.1,0.8,0.2,1.2,0.3C162,16.7,161.6,16.6,161.2,16.5z"/>
		<path class="st5" d="M156.9,15.4c0.5,0.1,1,0.2,1.5,0.4C157.9,15.6,157.4,15.5,156.9,15.4z"/>
		<path class="st5" d="M174.6,21c0.6,0.2,1.2,0.5,1.8,0.7C175.8,21.5,175.2,21.2,174.6,21z"/>
		<path class="st5" d="M183,24.5c0.6,0.3,1.3,0.6,1.9,0.9C184.3,25.1,183.7,24.8,183,24.5z"/>
		<path class="st5" d="M178.8,22.7c0.6,0.3,1.3,0.5,1.9,0.8C180,23.2,179.4,22.9,178.8,22.7z"/>
		<path class="st5" d="M154.5,14.8c-0.5-0.1-1.1-0.2-1.6-0.3C153.4,14.6,154,14.7,154.5,14.8z"/>
		<path class="st5" d="M134.1,12c0.5,0,0.9,0.1,1.4,0.1C135,12.1,134.5,12.1,134.1,12z"/>
		<path class="st5" d="M130.5,11.9c0.4,0,0.8,0,1.1,0C131.2,11.9,130.9,11.9,130.5,11.9z"/>
		<path class="st1" d="M185.4,21.8c-16.6-6.2-46-10.9-60.1-10.7c1.1,4.1,10.7,19.5,22.7,26.1c-0.4-0.1,7.8-2,7.4-2.2
			c24.2,8.5,34.2-0.8,37.6-5.6C190.6,28.2,187.7,22.9,185.4,21.8z"/>
		<path class="st5" d="M149,13.7c0.5,0.1,1.1,0.2,1.6,0.3C150.1,13.9,149.6,13.8,149,13.7z"/>
		<path class="st5" d="M145.2,13.1c0.5,0.1,1.1,0.2,1.6,0.2C146.3,13.3,145.7,13.2,145.2,13.1z"/>
		<path class="st5" d="M137.7,12.3c0.5,0,1,0.1,1.5,0.1C138.7,12.4,138.2,12.3,137.7,12.3z"/>
		<path class="st5" d="M141.4,12.6c0.5,0.1,1,0.1,1.6,0.2C142.5,12.7,141.9,12.7,141.4,12.6z"/>
		<path class="st2" d="M130.2,34.1c0.2,0.1,0.4,0.3,0.6,0.4C130.6,34.4,130.4,34.2,130.2,34.1z"/>
		<path class="st2" d="M128.8,32.9c0.2,0.1,0.3,0.3,0.5,0.4C129.1,33.2,128.9,33.1,128.8,32.9z"/>
		<path class="st2" d="M126.2,30.6c0,0,0.1,0.1,0.1,0.1C126.3,30.7,126.2,30.7,126.2,30.6z"/>
		<path class="st2" d="M131.7,35.2c0.2,0.2,0.4,0.3,0.6,0.5C132.1,35.5,131.9,35.4,131.7,35.2z"/>
		<path class="st2" d="M133.3,36.4c0.2,0.2,0.5,0.3,0.7,0.5C133.8,36.7,133.6,36.5,133.3,36.4z"/>
		<path class="st2" d="M36,40.8l1.9-2.4c-2.7-1.2-5.8-1-8.4,0.7c-0.8,0.5-1.5,1.1-2.1,1.9c-1.5,1.8-2.2,4.1-1.9,6.5
			c0.2,1.6,0.7,3,1.6,4.2c2.3-3.1,4.8-6.2,7.4-9.3C34.7,42.2,35.1,41.7,36,40.8z"/>
		<path class="st2" d="M41.9,50.9l-6.6,8.2c-24.1,33.1-29.5,68.6-16,105.7c0.4,1.1,0.8,2.2,1.2,3.3l10.9-7.1c2.2-1.4,5.1-1.1,6.9,0.7
			l21.2,21.5c1.2,1.2,1.7,2.8,1.5,4.4c-0.2,1.6-1.1,3.1-2.5,4l-18,11.7c3.2,4.3,6,7.6,8,9.8c55.5-36.9,92.7-72.3,116.9-100.1
			c-30.1-39.6-62.2-54.4-84-59.8C62,48.5,47.1,50,41.9,50.9z"/>
		<path class="st2" d="M192.9,29.5c-24.3-13.1-46.4-17.8-66-17.6c1.4,5.3,6.9,15.6,28.4,23.1C179.5,43.5,189.5,34.3,192.9,29.5z"/>
		<path class="st2" d="M135.1,37.5c0.3,0.2,0.5,0.3,0.8,0.5C135.6,37.8,135.3,37.7,135.1,37.5z"/>
		<path class="st2" d="M127.4,31.8c0.1,0.1,0.2,0.2,0.3,0.3C127.6,32,127.5,31.9,127.4,31.8z"/>
		<path class="st2" d="M212.6,41.6c-1.4-1-2.8-1.9-4.2-2.8c-2.4,3.8-6.6,9-10.8,11.7c-0.1,0-0.1,0.1-0.2,0.1
			c-7.3,4.7-20.5,8.7-41.5,1.3c-20.2-7.1-29.1-17-33.1-24.9c0,0,0,0,0,0c-4.5-5.5-6.3-10.8-6.9-14.4C95.4,15,78.1,22.8,64.4,31.7
			c-3.9,2.5-7.3,5-10.1,7.3c7.7,0,17.7,0.7,29.1,3.5c23.3,5.7,57.4,21,89.2,62c1.1-1.4,2.2-2.7,3.3-4.1c7.5-9.9,13.5-18.3,18.4-25.4
			C204.8,59,210.3,47.2,212.6,41.6z"/>
		<path class="st2" d="M145.6,43c0.3,0.1,0.6,0.3,0.9,0.4C146.2,43.3,145.9,43.1,145.6,43z"/>
		<path class="st2" d="M148.2,44.1c0.3,0.1,0.5,0.2,0.8,0.3C148.8,44.3,148.5,44.2,148.2,44.1z"/>
		<path class="st2" d="M204.1,80.2c-3.5,5.4-7.6,11.3-12.3,17.6c-2.2,3-4.6,6.1-7.2,9.4c-0.7,0.9-1.4,1.8-2.1,2.7
			c15,2.4,47.6,4.8,73.6-12.1c0,0,0,0,0,0c20-13,32.4-35,37-65.4l-68.9,13.5C222.2,50.9,217.1,61.1,204.1,80.2z"/>
		<path class="st2" d="M143.2,41.9c0.3,0.1,0.6,0.3,1,0.4C143.9,42.2,143.5,42.1,143.2,41.9z"/>
		<path class="st2" d="M141,40.8c0.3,0.2,0.6,0.3,0.9,0.5C141.6,41.2,141.3,41,141,40.8z"/>
		<path class="st2" d="M136.9,38.6c0.3,0.2,0.5,0.3,0.8,0.5C137.5,39,137.2,38.8,136.9,38.6z"/>
		<path class="st2" d="M138.9,39.8c0.3,0.2,0.6,0.3,0.9,0.5C139.5,40.1,139.2,39.9,138.9,39.8z"/>
		<path class="st6" d="M303.2,21.5c-1.3-1.2-3-1.7-4.8-1.3l-76.1,14.9c0,0,0,0,0,0C146.7-19.4,87.2,3.8,58.4,22.5
			c-4.6,3-8.5,5.9-11.8,8.6c-6.7-5.3-15.9-5.8-23.1-1.1c-1.7,1.1-3.3,2.5-4.6,4.2c-3.3,4.1-4.8,9.3-4.3,14.5
			c0.5,4.8,2.7,9.1,6.2,12.3c-26.5,42-21.6,81.1-11.7,108c12.2,33,33.8,54.3,34.7,55.2c1.8,1.8,4.7,2.1,6.8,0.7c0,0,0,0,0,0
			c59-38.7,98.3-76.1,123.6-105.3c11.5,2.5,53.7,9.6,87.8-12.6c0,0,0,0,0,0C286.5,91.1,301,63.9,305,26.1
			C305.2,24.4,304.5,22.7,303.2,21.5z M127,11.9c19.5-0.3,41.6,4.5,66,17.6c-3.4,4.8-13.4,14.1-37.6,5.6
			C133.8,27.5,128.3,17.2,127,11.9z M27.2,51.7c-0.9-1.2-1.5-2.7-1.6-4.2c-0.3-2.3,0.4-4.6,1.9-6.5c0.6-0.7,1.3-1.4,2.1-1.9
			c2.5-1.7,5.7-1.9,8.4-0.7L36,40.8 M25,178.2l8.6-5.6L47,186.1l-12.7,8.3C31.2,189.6,28,184.2,25,178.2z M48.5,213.1
			c-2-2.2-4.8-5.5-8-9.8l18-11.7c1.4-0.9,2.3-2.4,2.5-4c0.2-1.6-0.4-3.3-1.5-4.4l-21.2-21.5c-1.8-1.9-4.7-2.2-6.9-0.7l-10.9,7.1
			c-0.4-1.1-0.8-2.2-1.2-3.3c-13.5-37.1-8.1-72.6,16-105.7l6.6-8.2c5.1-0.8,20.1-2.4,39.5,2.4c21.8,5.4,53.9,20.2,84,59.8
			C141.3,140.9,104.1,176.3,48.5,213.1z M172.6,104.5c-31.8-41-65.9-56.4-89.2-62C71.9,39.7,62,39,54.3,39c2.9-2.3,6.3-4.8,10.1-7.3
			c13.7-8.9,31-16.7,51.6-19.1c0.7,3.7,2.4,8.9,6.9,14.4c1,1.2,2.1,2.4,3.3,3.6c0,0,0.1,0.1,0.1,0.1c0.4,0.3,0.7,0.7,1.1,1
			c0.1,0.1,0.2,0.2,0.3,0.3c0.3,0.3,0.7,0.6,1,0.9c0.2,0.1,0.3,0.3,0.5,0.4c0.3,0.3,0.6,0.5,1,0.8c0.2,0.1,0.4,0.3,0.6,0.4
			c0.3,0.2,0.6,0.5,1,0.7c0.2,0.2,0.4,0.3,0.6,0.5c0.3,0.2,0.7,0.5,1,0.7c0.2,0.2,0.5,0.3,0.7,0.5c0.3,0.2,0.7,0.4,1,0.7
			c0.3,0.2,0.5,0.3,0.8,0.5c0.4,0.2,0.7,0.4,1.1,0.6c0.3,0.2,0.5,0.3,0.8,0.5c0.4,0.2,0.8,0.4,1.1,0.6c0.3,0.2,0.6,0.3,0.9,0.5
			c0.4,0.2,0.8,0.4,1.2,0.6c0.3,0.2,0.6,0.3,0.9,0.5c0.4,0.2,0.9,0.4,1.3,0.6c0.3,0.1,0.6,0.3,1,0.4c0.5,0.2,1,0.4,1.4,0.6
			c0.3,0.1,0.6,0.3,0.9,0.4c0.5,0.2,1.1,0.4,1.7,0.7c0.3,0.1,0.5,0.2,0.8,0.3c0.9,0.3,1.7,0.7,2.6,1c21.1,7.4,34.2,3.4,41.5-1.3
			c0.1,0,0.1-0.1,0.2-0.1c4.5-2.9,7.3-6.4,9.1-9c2,1.2,4,2.5,6,3.8c1.4,0.9,2.8,1.8,4.2,2.8c-2.3,5.6-7.8,17.4-18.3,33.5
			c-4.9,7.1-10.9,15.5-18.4,25.4C174.9,101.8,173.8,103.1,172.6,104.5z M256.1,97.8C256.1,97.8,256.1,97.8,256.1,97.8
			c-26,16.9-58.6,14.5-73.6,12.1c0.7-0.9,1.4-1.8,2.1-2.7c2.6-3.3,5-6.4,7.2-9.4c4.7-6.3,8.8-12.2,12.3-17.6
			c13-19,18.1-29.3,20.1-34.3l68.9-13.5C288.5,62.8,276.1,84.8,256.1,97.8z"/>
	</g>
	
	<g id="down" style="transform: scale(1, -1) rotate(-90deg); transform-origin: center">
		<ellipse transform="matrix(0.8383 -0.5453 0.5453 0.8383 -17.8427 24.6578)" class="st1" cx="32.6" cy="42.4" rx="12.5" ry="8.3"/>
		<path class="st1" d="M23.3,162.6l12.2,9.1L24.3,179c4.8,10.1,6,13.7,8.6,18.7l19.8-12.9L23.3,162.6z"/>
		<path class="st2" d="M33.7,172.6l-8.6,5.6c2.9,6,6.1,11.4,9.2,16.2l12.7-8.3L33.7,172.6z"/>
		<path class="st0" d="M185.3,110.3c0.4,0.1,0.8,0.1,1.1,0.1C186,110.4,185.6,110.3,185.3,110.3z"/>
		<path class="st0" d="M189.9,110.8c-0.5-0.1-1.1-0.1-1.6-0.2C188.8,110.7,189.3,110.8,189.9,110.8z"/>
		<path class="st3" d="M178.9,111.7c-0.4,0.6,15.2,1,14.7,1.6c16.9,1.2,41.9-2.1,62.5-15.5c0,0,0,0,0,0C275.1,85.5,287.2,65,293.6,32
			l-69.3,11.6c-3.2,9.9-10.3,18.5-23.3,37.5"/>
		<path class="st0" d="M193.4,111.2c-0.6,0-1.2-0.1-1.8-0.1C192.2,111.1,192.8,111.1,193.4,111.2z"/>
		<path class="st3" d="M58.1,190.8l-18,11.7c0,0,0,0,0,0l-2.6,1.3c1.7,2.5,9.4,10.6,10.5,12c52.4-35.5,94-76.2,117.3-103
			c-29.5-38.8-60.6-56.3-82.3-61.9c-27.6-2-42.6-2.7-42.6-2.7C10.1,79,0.5,134.9,18.8,170.5l2.8-1.8c2.2-1.4,13.2-6.1,15-4.2
			l22.7,18.4c1.2,1.2,1.6,2.5,1.4,4.2C60.5,188.7,59.4,189.9,58.1,190.8z"/>
		<path class="st4" d="M60.2,39.1c-0.6,0-1.2,0-1.8-0.1C59,39.1,59.6,39.1,60.2,39.1z"/>
		<path class="st3" d="M202,34.2c-1.7,2.6-5,5.4-9.5,8.3c-0.1,0-0.1,0.1-0.2,0.1c-7.3,4.7-20,9.4-41.1,2c-21-7.4-32-25.5-35.6-33.6
			C96,13.7,65.3,29.2,52,37.8c-0.7,0.5-1.4,1-2,1.5c-0.4,0-0.8,0-1.2-0.1c5.4,0.5,28,1.6,34.5,3.2c23.3,5.7,57.4,21.1,89.2,62
			c1.1-1.4,2.2-2.7,3.3-4.1c7.5-9.9,13.5-18.3,18.4-25.4c10.5-16.1,15.7-28.2,18-33.9C208.9,38.8,205.3,36.3,202,34.2z"/>
		<path class="st4" d="M57.2,39c-1,0-2,0-2.9,0C55.2,39,56.2,39,57.2,39z"/>
		<path class="st4" d="M116.3,14.1C116.3,14.1,116.3,14.1,116.3,14.1C116.3,14.1,116.3,14.1,116.3,14.1z"/>
		<path class="st4" d="M63.5,39.3c-0.5,0-1-0.1-1.5-0.1C62.5,39.3,62.9,39.3,63.5,39.3z"/>
		<path class="st5" d="M166.4,18.1c0.4,0.1,0.7,0.3,1.1,0.4C167.2,18.3,166.8,18.2,166.4,18.1z"/>
		<path class="st5" d="M170.5,19.4c0.5,0.2,1.1,0.4,1.6,0.6C171.6,19.8,171,19.6,170.5,19.4z"/>
		<path class="st5" d="M161.2,16.5c0.4,0.1,0.8,0.2,1.2,0.3C162,16.7,161.6,16.6,161.2,16.5z"/>
		<path class="st5" d="M156.9,15.4c0.5,0.1,1,0.2,1.5,0.4C157.9,15.6,157.4,15.5,156.9,15.4z"/>
		<path class="st5" d="M174.6,21c0.6,0.2,1.2,0.5,1.8,0.7C175.8,21.5,175.2,21.2,174.6,21z"/>
		<path class="st5" d="M183,24.5c0.6,0.3,1.3,0.6,1.9,0.9C184.3,25.1,183.7,24.8,183,24.5z"/>
		<path class="st5" d="M178.8,22.7c0.6,0.3,1.3,0.5,1.9,0.8C180,23.2,179.4,22.9,178.8,22.7z"/>
		<path class="st5" d="M154.5,14.8c-0.5-0.1-1.1-0.2-1.6-0.3C153.4,14.6,154,14.7,154.5,14.8z"/>
		<path class="st5" d="M134.1,12c0.5,0,0.9,0.1,1.4,0.1C135,12.1,134.5,12.1,134.1,12z"/>
		<path class="st5" d="M130.5,11.9c0.4,0,0.8,0,1.1,0C131.2,11.9,130.9,11.9,130.5,11.9z"/>
		<path class="st1" d="M185.4,21.8c-16.6-6.2-46-10.9-60.1-10.7c1.1,4.1,10.7,19.5,22.7,26.1c-0.4-0.1,7.8-2,7.4-2.2
			c24.2,8.5,34.2-0.8,37.6-5.6C190.6,28.2,187.7,22.9,185.4,21.8z"/>
		<path class="st5" d="M149,13.7c0.5,0.1,1.1,0.2,1.6,0.3C150.1,13.9,149.6,13.8,149,13.7z"/>
		<path class="st5" d="M145.2,13.1c0.5,0.1,1.1,0.2,1.6,0.2C146.3,13.3,145.7,13.2,145.2,13.1z"/>
		<path class="st5" d="M137.7,12.3c0.5,0,1,0.1,1.5,0.1C138.7,12.4,138.2,12.3,137.7,12.3z"/>
		<path class="st5" d="M141.4,12.6c0.5,0.1,1,0.1,1.6,0.2C142.5,12.7,141.9,12.7,141.4,12.6z"/>
		<path class="st2" d="M130.2,34.1c0.2,0.1,0.4,0.3,0.6,0.4C130.6,34.4,130.4,34.2,130.2,34.1z"/>
		<path class="st2" d="M128.8,32.9c0.2,0.1,0.3,0.3,0.5,0.4C129.1,33.2,128.9,33.1,128.8,32.9z"/>
		<path class="st2" d="M126.2,30.6c0,0,0.1,0.1,0.1,0.1C126.3,30.7,126.2,30.7,126.2,30.6z"/>
		<path class="st2" d="M131.7,35.2c0.2,0.2,0.4,0.3,0.6,0.5C132.1,35.5,131.9,35.4,131.7,35.2z"/>
		<path class="st2" d="M133.3,36.4c0.2,0.2,0.5,0.3,0.7,0.5C133.8,36.7,133.6,36.5,133.3,36.4z"/>
		<path class="st2" d="M36,40.8l1.9-2.4c-2.7-1.2-5.8-1-8.4,0.7c-0.8,0.5-1.5,1.1-2.1,1.9c-1.5,1.8-2.2,4.1-1.9,6.5
			c0.2,1.6,0.7,3,1.6,4.2c2.3-3.1,4.8-6.2,7.4-9.3C34.7,42.2,35.1,41.7,36,40.8z"/>
		<path class="st2" d="M41.9,50.9l-6.6,8.2c-24.1,33.1-29.5,68.6-16,105.7c0.4,1.1,0.8,2.2,1.2,3.3l10.9-7.1c2.2-1.4,5.1-1.1,6.9,0.7
			l21.2,21.5c1.2,1.2,1.7,2.8,1.5,4.4c-0.2,1.6-1.1,3.1-2.5,4l-18,11.7c3.2,4.3,6,7.6,8,9.8c55.5-36.9,92.7-72.3,116.9-100.1
			c-30.1-39.6-62.2-54.4-84-59.8C62,48.5,47.1,50,41.9,50.9z"/>
		<path class="st2" d="M192.9,29.5c-24.3-13.1-46.4-17.8-66-17.6c1.4,5.3,6.9,15.6,28.4,23.1C179.5,43.5,189.5,34.3,192.9,29.5z"/>
		<path class="st2" d="M135.1,37.5c0.3,0.2,0.5,0.3,0.8,0.5C135.6,37.8,135.3,37.7,135.1,37.5z"/>
		<path class="st2" d="M127.4,31.8c0.1,0.1,0.2,0.2,0.3,0.3C127.6,32,127.5,31.9,127.4,31.8z"/>
		<path class="st2" d="M212.6,41.6c-1.4-1-2.8-1.9-4.2-2.8c-2.4,3.8-6.6,9-10.8,11.7c-0.1,0-0.1,0.1-0.2,0.1
			c-7.3,4.7-20.5,8.7-41.5,1.3c-20.2-7.1-29.1-17-33.1-24.9c0,0,0,0,0,0c-4.5-5.5-6.3-10.8-6.9-14.4C95.4,15,78.1,22.8,64.4,31.7
			c-3.9,2.5-7.3,5-10.1,7.3c7.7,0,17.7,0.7,29.1,3.5c23.3,5.7,57.4,21,89.2,62c1.1-1.4,2.2-2.7,3.3-4.1c7.5-9.9,13.5-18.3,18.4-25.4
			C204.8,59,210.3,47.2,212.6,41.6z"/>
		<path class="st2" d="M145.6,43c0.3,0.1,0.6,0.3,0.9,0.4C146.2,43.3,145.9,43.1,145.6,43z"/>
		<path class="st2" d="M148.2,44.1c0.3,0.1,0.5,0.2,0.8,0.3C148.8,44.3,148.5,44.2,148.2,44.1z"/>
		<path class="st2" d="M204.1,80.2c-3.5,5.4-7.6,11.3-12.3,17.6c-2.2,3-4.6,6.1-7.2,9.4c-0.7,0.9-1.4,1.8-2.1,2.7
			c15,2.4,47.6,4.8,73.6-12.1c0,0,0,0,0,0c20-13,32.4-35,37-65.4l-68.9,13.5C222.2,50.9,217.1,61.1,204.1,80.2z"/>
		<path class="st2" d="M143.2,41.9c0.3,0.1,0.6,0.3,1,0.4C143.9,42.2,143.5,42.1,143.2,41.9z"/>
		<path class="st2" d="M141,40.8c0.3,0.2,0.6,0.3,0.9,0.5C141.6,41.2,141.3,41,141,40.8z"/>
		<path class="st2" d="M136.9,38.6c0.3,0.2,0.5,0.3,0.8,0.5C137.5,39,137.2,38.8,136.9,38.6z"/>
		<path class="st2" d="M138.9,39.8c0.3,0.2,0.6,0.3,0.9,0.5C139.5,40.1,139.2,39.9,138.9,39.8z"/>
		<path class="st6" d="M303.2,21.5c-1.3-1.2-3-1.7-4.8-1.3l-76.1,14.9c0,0,0,0,0,0C146.7-19.4,87.2,3.8,58.4,22.5
			c-4.6,3-8.5,5.9-11.8,8.6c-6.7-5.3-15.9-5.8-23.1-1.1c-1.7,1.1-3.3,2.5-4.6,4.2c-3.3,4.1-4.8,9.3-4.3,14.5
			c0.5,4.8,2.7,9.1,6.2,12.3c-26.5,42-21.6,81.1-11.7,108c12.2,33,33.8,54.3,34.7,55.2c1.8,1.8,4.7,2.1,6.8,0.7c0,0,0,0,0,0
			c59-38.7,98.3-76.1,123.6-105.3c11.5,2.5,53.7,9.6,87.8-12.6c0,0,0,0,0,0C286.5,91.1,301,63.9,305,26.1
			C305.2,24.4,304.5,22.7,303.2,21.5z M127,11.9c19.5-0.3,41.6,4.5,66,17.6c-3.4,4.8-13.4,14.1-37.6,5.6
			C133.8,27.5,128.3,17.2,127,11.9z M27.2,51.7c-0.9-1.2-1.5-2.7-1.6-4.2c-0.3-2.3,0.4-4.6,1.9-6.5c0.6-0.7,1.3-1.4,2.1-1.9
			c2.5-1.7,5.7-1.9,8.4-0.7L36,40.8 M25,178.2l8.6-5.6L47,186.1l-12.7,8.3C31.2,189.6,28,184.2,25,178.2z M48.5,213.1
			c-2-2.2-4.8-5.5-8-9.8l18-11.7c1.4-0.9,2.3-2.4,2.5-4c0.2-1.6-0.4-3.3-1.5-4.4l-21.2-21.5c-1.8-1.9-4.7-2.2-6.9-0.7l-10.9,7.1
			c-0.4-1.1-0.8-2.2-1.2-3.3c-13.5-37.1-8.1-72.6,16-105.7l6.6-8.2c5.1-0.8,20.1-2.4,39.5,2.4c21.8,5.4,53.9,20.2,84,59.8
			C141.3,140.9,104.1,176.3,48.5,213.1z M172.6,104.5c-31.8-41-65.9-56.4-89.2-62C71.9,39.7,62,39,54.3,39c2.9-2.3,6.3-4.8,10.1-7.3
			c13.7-8.9,31-16.7,51.6-19.1c0.7,3.7,2.4,8.9,6.9,14.4c1,1.2,2.1,2.4,3.3,3.6c0,0,0.1,0.1,0.1,0.1c0.4,0.3,0.7,0.7,1.1,1
			c0.1,0.1,0.2,0.2,0.3,0.3c0.3,0.3,0.7,0.6,1,0.9c0.2,0.1,0.3,0.3,0.5,0.4c0.3,0.3,0.6,0.5,1,0.8c0.2,0.1,0.4,0.3,0.6,0.4
			c0.3,0.2,0.6,0.5,1,0.7c0.2,0.2,0.4,0.3,0.6,0.5c0.3,0.2,0.7,0.5,1,0.7c0.2,0.2,0.5,0.3,0.7,0.5c0.3,0.2,0.7,0.4,1,0.7
			c0.3,0.2,0.5,0.3,0.8,0.5c0.4,0.2,0.7,0.4,1.1,0.6c0.3,0.2,0.5,0.3,0.8,0.5c0.4,0.2,0.8,0.4,1.1,0.6c0.3,0.2,0.6,0.3,0.9,0.5
			c0.4,0.2,0.8,0.4,1.2,0.6c0.3,0.2,0.6,0.3,0.9,0.5c0.4,0.2,0.9,0.4,1.3,0.6c0.3,0.1,0.6,0.3,1,0.4c0.5,0.2,1,0.4,1.4,0.6
			c0.3,0.1,0.6,0.3,0.9,0.4c0.5,0.2,1.1,0.4,1.7,0.7c0.3,0.1,0.5,0.2,0.8,0.3c0.9,0.3,1.7,0.7,2.6,1c21.1,7.4,34.2,3.4,41.5-1.3
			c0.1,0,0.1-0.1,0.2-0.1c4.5-2.9,7.3-6.4,9.1-9c2,1.2,4,2.5,6,3.8c1.4,0.9,2.8,1.8,4.2,2.8c-2.3,5.6-7.8,17.4-18.3,33.5
			c-4.9,7.1-10.9,15.5-18.4,25.4C174.9,101.8,173.8,103.1,172.6,104.5z M256.1,97.8C256.1,97.8,256.1,97.8,256.1,97.8
			c-26,16.9-58.6,14.5-73.6,12.1c0.7-0.9,1.4-1.8,2.1-2.7c2.6-3.3,5-6.4,7.2-9.4c4.7-6.3,8.8-12.2,12.3-17.6
			c13-19,18.1-29.3,20.1-34.3l68.9-13.5C288.5,62.8,276.1,84.8,256.1,97.8z"/>
	</g>
</svg>
