<svg xmlns="http://www.w3.org/2000/svg" xmlns:xlink="http://www.w3.org/1999/xlink" width="20" height="20" viewBox="0 0 20 20">
    <defs>
        <path id="a" d="M0 .015h19.984v19.718H0z"/>
    </defs>
    <g fill="none" fill-rule="evenodd">
        <g>
            <mask id="b" fill="#fff">
                <use xlink:href="#a"/>
            </mask>
            <path fill="#FACD00" d="M19.984 9.874c0 5.445-4.473 9.86-9.992 9.86C4.474 19.733 0 15.318 0 9.873 0 4.43 4.474.015 9.992.015c5.519 0 9.992 4.414 9.992 9.86" mask="url(#b)"/>
        </g>
        <path fill="#EB8301" d="M17.43 9.718c0 4.14-3.4 7.495-7.596 7.495s-7.596-3.355-7.596-7.495c0-4.14 3.4-7.495 7.596-7.495 4.195 0 7.596 3.356 7.596 7.495"/>
        <path fill="#EBB300" d="M17.645 10.03c0 4.084-3.356 7.395-7.495 7.395s-7.494-3.31-7.494-7.395c0-4.083 3.355-7.394 7.494-7.394 4.14 0 7.495 3.31 7.495 7.394"/>
        <path fill="#EB8301" d="M7.775 6.582a1.261 1.261 0 0 0-.623-.783 1.289 1.289 0 0 0-1.735.506 1.254 1.254 0 0 0 .513 1.712c.32.172.683.193 1.005.09a3.24 3.24 0 0 0 1.635 3.59l.827.443a.822.822 0 0 0 1.108-.323.8.8 0 0 0-.328-1.093l-.827-.444a1.63 1.63 0 0 1-.665-2.222 1.674 1.674 0 0 1 2.252-.657l.83.445a.822.822 0 0 0 1.107-.323.8.8 0 0 0-.327-1.093l-.83-.445a3.332 3.332 0 0 0-3.942.597"/>
        <path fill="#EB8301" d="M12.17 13.74c.087.322.302.61.623.782.62.333 1.397.107 1.735-.506a1.254 1.254 0 0 0-.513-1.711 1.292 1.292 0 0 0-1.005-.091 3.24 3.24 0 0 0-1.635-3.589l-.827-.444a.822.822 0 0 0-1.108.324.8.8 0 0 0 .327 1.093l.827.443a1.63 1.63 0 0 1 .666 2.222 1.674 1.674 0 0 1-2.252.657l-.83-.445a.822.822 0 0 0-1.108.323.8.8 0 0 0 .328 1.093l.83.445a3.332 3.332 0 0 0 3.941-.597"/>
        <path fill="#FACD00" d="M7.815 6.4a1.26 1.26 0 0 0-.624-.784 1.288 1.288 0 0 0-1.735.507 1.253 1.253 0 0 0 .513 1.711c.321.172.683.194 1.005.091a3.24 3.24 0 0 0 1.636 3.589l.827.443a.823.823 0 0 0 1.107-.323.8.8 0 0 0-.327-1.093l-.827-.444a1.629 1.629 0 0 1-.666-2.221 1.674 1.674 0 0 1 2.252-.657l.83.445a.822.822 0 0 0 1.108-.323.8.8 0 0 0-.327-1.093l-.83-.445a3.332 3.332 0 0 0-3.942.597"/>
        <path fill="#FACD00" d="M12.209 13.557c.087.322.303.61.623.783.621.333 1.398.106 1.736-.506a1.254 1.254 0 0 0-.513-1.712 1.29 1.29 0 0 0-1.006-.09 3.24 3.24 0 0 0-1.635-3.59L10.587 8a.822.822 0 0 0-1.108.323.8.8 0 0 0 .328 1.093l.827.444a1.63 1.63 0 0 1 .666 2.222 1.674 1.674 0 0 1-2.252.657l-.83-.445a.822.822 0 0 0-1.108.323.8.8 0 0 0 .327 1.092l.83.446a3.332 3.332 0 0 0 3.942-.597"/>
    </g>
</svg>
