<?xml version="1.0" encoding="UTF-8"?>
<svg viewBox="0 0 38 38" version="1.1" xmlns="http://www.w3.org/2000/svg" xmlns:xlink="http://www.w3.org/1999/xlink">
	<g id="Icon">
		<path d="M18.2619314,0.387231429 C8.27193143,0.387231429 0.144617143,8.50926 0.144617143,18.49186 C0.144617143,28.4755171 8.27193143,36.5975457 18.2619314,36.5975457 C28.2508743,36.5975457 36.3792457,28.4755171 36.3792457,18.49186 C36.3792457,8.50926 28.2508743,0.387231429 18.2619314,0.387231429" id="Fill-25" fill="#00C8BA"></path>
		<g id="Group-3" transform="translate(6.342857, 6.342857)" fill="#FFFFFF">
			<path d="M6.54815429,3.42239429 C6.33461143,2.62530857 5.80921143,1.91173714 5.02692571,1.48676571 C3.51309714,0.663251429 1.61869714,1.22353714 0.79624,2.73736571 C-0.0272742857,4.25119429 0.533011429,6.14559429 2.04684,6.96805143 C2.82912571,7.39408 3.71289714,7.44693714 4.49835429,7.19216571 C3.70549714,10.6215371 5.24681143,14.3025086 8.48589714,16.0637086 L10.5029257,17.1599657 C11.4691543,17.6853657 12.6785257,17.3280514 13.2039257,16.3607657 C13.7293257,15.3945371 13.3730686,14.1851657 12.4057829,13.6597657 L10.3887543,12.5624514 C8.42669714,11.4968514 7.69832571,9.03265143 8.76604,7.07059429 C9.83164,5.10853714 12.29584,4.38016571 14.2578971,5.44682286 L16.2823257,6.54730857 C17.2485543,7.07270857 18.4579257,6.71539429 18.9833257,5.74916571 C19.5087257,4.78188 19.1514114,3.57250857 18.1851829,3.04710857 L16.1607543,1.94662286 C12.9216686,0.185422857 8.99438286,0.892651429 6.54815429,3.42239429" id="Fill-27"></path>
			<path d="M17.2636714,21.1130457 C17.4772143,21.9101314 18.0026143,22.6226457 18.7849,23.0486743 C20.2987286,23.8711314 22.1931286,23.3119029 23.0155857,21.7980743 C23.8391,20.2842457 23.2788143,18.3898457 21.7649857,17.5673886 C20.9827,17.14136 20.0989286,17.0885029 19.3134714,17.3432743 C20.1063286,13.9139029 18.5650143,10.2329314 15.3259286,8.47173143 L13.3089,7.37547429 C12.3426714,6.85007429 11.1333,7.20738857 10.6079,8.17467429 C10.0825,9.14090286 10.4387571,10.3502743 11.4060429,10.8756743 L13.4230714,11.9729886 C15.3851286,13.0385886 16.1135,15.5027886 15.0457857,17.4648457 C13.9801857,19.4269029 11.5159857,20.1552743 9.55392857,19.0886171 L7.5295,17.9881314 C6.56327143,17.4627314 5.3539,17.8200457 4.8285,18.7862743 C4.3031,19.75356 4.66041429,20.9629314 5.62664286,21.4883314 L7.65107143,22.5888171 C10.8901571,24.3500171 14.8174429,23.6427886 17.2636714,21.1130457" id="Fill-29"></path>
		</g>
	</g>
</svg>